<svg version="1.0" xmlns="http://www.w3.org/2000/svg"
    width="400.000000pt" height="400.000000pt" viewBox="0 0 400.000000 400.000000"
    preserveAspectRatio="xMidYMid meet">

    <g transform="translate(0.000000,400.000000) scale(0.100000,-0.100000)"
        fill="#23ded5" stroke="none">
        <path
            d="M1696 3844 c-4 -9 0 -27 9 -40 15 -23 14 -23 -23 -28 -118 -17 -212
-41 -269 -66 -127 -58 -266 -178 -313 -270 -12 -23 -59 -80 -104 -125 -98 -98
-168 -198 -164 -233 2 -20 25 -43 45 -47 1 -1 -9 -30 -24 -65 -23 -57 -25 -74
-20 -150 2 -47 12 -104 22 -127 16 -41 16 -43 -2 -70 -62 -91 -95 -247 -114
-545 -11 -168 -6 -272 16 -331 4 -10 -3 -16 -22 -20 -16 -3 -41 -15 -55 -27
-39 -30 -97 -153 -110 -234 -25 -153 43 -331 146 -380 45 -21 120 -21 141 0 9
9 17 15 19 13 1 -2 15 -57 30 -123 34 -145 72 -220 168 -333 147 -174 435
-355 654 -413 128 -33 205 -28 364 26 235 78 442 188 554 294 84 79 211 240
251 320 40 80 71 190 81 290 l7 71 30 -37 c36 -44 81 -64 139 -64 89 1 166 61
217 170 22 47 26 69 26 150 0 87 -3 100 -30 149 -16 29 -45 65 -65 79 -19 14
-39 29 -43 33 -5 3 3 23 17 43 41 61 86 304 86 468 0 38 5 54 21 67 30 24 50
110 56 237 7 155 -21 247 -122 389 -34 48 -41 66 -38 92 9 61 -82 189 -164
232 -37 18 -39 22 -50 93 -6 40 -21 99 -33 130 -26 71 -104 158 -141 158 -15
0 -36 11 -50 26 -36 38 -150 111 -221 142 l-63 27 -310 0 c-286 0 -317 2 -402
23 -111 26 -139 27 -147 6z m54 -958 c93 -41 204 -66 294 -66 49 0 83 8 142
31 130 52 228 49 297 -10 17 -15 49 -38 71 -51 72 -43 195 -268 265 -484 56
-171 131 -543 131 -646 0 -58 20 -130 36 -130 7 0 24 16 37 35 41 61 75 80
138 80 47 0 62 -4 84 -25 38 -35 55 -80 55 -148 0 -158 -103 -271 -225 -248
-38 8 -71 46 -82 98 -3 15 -9 25 -14 22 -19 -11 -50 -87 -69 -167 -47 -198
-88 -286 -198 -424 -119 -150 -186 -205 -375 -313 -283 -160 -390 -181 -584
-116 -337 113 -607 307 -708 506 -18 36 -54 131 -80 213 -26 81 -55 157 -64
169 -26 32 -43 15 -39 -41 3 -45 3 -46 -26 -44 -34 3 -91 46 -124 93 -75 110
-64 327 20 417 29 31 55 29 89 -8 49 -53 46 -59 130 246 83 304 191 610 268
763 74 147 155 211 292 233 45 7 82 19 94 30 28 27 56 24 145 -15z" />
        <path
            d="M2290 2144 c-70 -19 -132 -55 -150 -88 -24 -45 -1 -52 74 -22 95 38
211 53 299 37 61 -10 73 -10 86 4 60 60 -160 109 -309 69z" />
        <path
            d="M1267 2100 c-31 -10 -73 -30 -92 -44 -61 -47 -37 -97 27 -58 77 47
207 64 307 41 37 -8 47 -7 60 6 59 59 -163 100 -302 55z" />
        <path
            d="M2303 1955 c-90 -20 -178 -62 -216 -104 -28 -31 -36 -35 -46 -23 -8
8 -20 10 -30 6 -18 -8 -29 -7 -82 2 -20 3 -46 1 -57 -5 -12 -6 -23 -7 -26 -2
-10 15 22 21 114 21 94 0 127 14 60 25 -46 8 -157 -2 -216 -20 -36 -11 -44
-10 -65 6 -13 10 -46 27 -74 38 -174 65 -413 39 -545 -61 -28 -21 -61 -38 -73
-38 -45 0 -62 -46 -31 -81 14 -16 15 -27 4 -89 -37 -219 96 -402 319 -441 165
-29 336 51 428 201 57 93 89 257 63 324 -17 45 -27 28 -39 -64 -37 -287 -202
-437 -439 -399 -115 18 -193 76 -240 178 -20 44 -27 78 -32 171 -4 63 -10 122
-14 130 -4 10 2 19 16 26 13 6 46 25 73 42 130 82 361 95 548 29 53 -18 104
-42 111 -53 13 -17 18 -17 48 -6 44 16 77 15 108 -3 31 -18 61 -19 59 -2 -4
29 2 38 24 36 12 -2 44 10 71 26 158 93 409 110 541 36 106 -59 130 -74 140
-88 10 -13 13 -13 24 1 21 25 9 51 -22 51 -20 1 -36 11 -53 33 -32 41 -99 80
-166 98 -66 17 -203 17 -285 -1z" />
        <path
            d="M2378 1751 c-15 -5 -43 -19 -62 -30 -55 -35 -62 -81 -7 -48 38 22 44
21 30 -5 -19 -36 -14 -158 8 -209 41 -93 122 -125 194 -76 54 36 74 87 74 189
0 93 -11 119 -68 162 -30 22 -123 31 -169 17z" />
        <path
            d="M1303 1730 c-42 -21 -93 -72 -93 -91 0 -19 31 -21 50 -4 11 10 22 16
24 14 2 -2 0 -27 -5 -54 -11 -60 -4 -114 24 -174 52 -110 189 -108 247 5 21
41 25 62 25 134 0 94 -11 118 -74 161 -48 34 -141 38 -198 9z" />
        <path
            d="M2816 1728 c-2 -13 -9 -60 -14 -104 -19 -142 -101 -278 -207 -339
-141 -83 -336 -35 -441 107 -47 64 -77 146 -95 255 -13 82 -21 98 -43 90 -13
-5 -16 -23 -16 -94 0 -150 35 -237 139 -346 35 -37 78 -69 120 -90 62 -30 73
-32 171 -32 98 0 110 2 170 32 153 76 271 278 257 442 -6 71 -14 101 -28 101
-5 0 -11 -10 -13 -22z" />
        <path
            d="M3125 1520 c-70 -35 -117 -137 -80 -174 16 -16 18 -16 36 0 11 9 19
23 19 31 0 18 25 17 40 -2 7 -8 16 -15 21 -15 13 0 11 44 -2 57 -14 14 -4 43
15 43 7 0 17 -12 20 -26 10 -39 31 -23 34 28 4 68 -37 91 -103 58z" />
        <path
            d="M727 1423 c-17 -16 -5 -42 23 -51 16 -6 45 -22 63 -36 19 -15 39 -26
45 -26 22 0 12 46 -19 83 -25 31 -37 37 -68 37 -21 0 -41 -3 -44 -7z" />
        <path
            d="M1887 1424 c-8 -8 3 -162 14 -191 14 -39 24 -26 37 47 15 89 15 123
0 138 -13 13 -41 16 -51 6z" />
        <path
            d="M2124 1083 c-8 -27 -126 -102 -183 -115 -41 -9 -65 -9 -117 1 -68 14
-90 8 -79 -21 12 -31 80 -58 146 -58 79 0 149 30 216 93 27 25 57 46 68 48 26
5 31 37 8 54 -25 20 -54 18 -59 -2z" />
    </g>
</svg>