<?xml version="1.0" standalone="no"?>
<!DOCTYPE svg PUBLIC "-//W3C//DTD SVG 20010904//EN"
 "http://www.w3.org/TR/2001/REC-SVG-20010904/DTD/svg10.dtd">
<svg version="1.0" xmlns="http://www.w3.org/2000/svg"
 width="2388.000000pt" height="1668.000000pt" viewBox="0 0 2388.000000 1668.000000"
 preserveAspectRatio="xMidYMid meet">

<g transform="translate(0.000000,1668.000000) scale(0.100000,-0.100000)"
fill="#000000" stroke="none">
<path d="M8500 15470 c-10 -6 -14 -65 -16 -231 -3 -223 -6 -307 -23 -534 -5
-66 -9 -129 -9 -140 0 -11 -3 -67 -6 -125 -16 -250 -21 -711 -11 -885 12 -197
22 -319 32 -380 3 -22 7 -49 9 -60 1 -11 8 -54 15 -95 22 -125 7 -953 -27
-1555 -3 -55 -7 -143 -9 -195 -2 -52 -6 -133 -9 -180 -3 -47 -8 -141 -11 -210
-3 -69 -8 -159 -11 -200 -2 -41 -7 -120 -9 -175 -3 -55 -7 -138 -10 -185 -3
-47 -7 -128 -10 -180 -3 -52 -8 -135 -11 -185 -3 -49 -7 -119 -9 -155 -2 -36
-6 -108 -9 -160 -6 -89 -11 -181 -21 -375 -2 -44 -7 -125 -10 -180 -3 -55 -7
-147 -10 -205 -3 -58 -7 -159 -10 -225 -8 -156 -20 -497 -30 -800 -28 -872
-20 -1970 20 -2825 2 -52 7 -147 10 -210 6 -146 16 -309 30 -525 3 -44 8 -114
10 -155 3 -41 7 -106 10 -145 2 -38 7 -108 10 -155 5 -81 12 -170 20 -270 2
-25 6 -90 10 -145 3 -55 8 -127 10 -160 2 -33 7 -116 10 -185 6 -137 12 -180
25 -180 8 0 22 58 16 69 -4 6 -11 130 -21 381 -3 58 -7 148 -10 200 -3 52 -8
151 -10 220 -3 69 -7 152 -10 185 -2 33 -7 125 -10 205 -3 80 -8 179 -10 220
-3 41 -7 131 -10 200 -3 69 -7 166 -10 215 -30 661 -39 1053 -39 1760 0 553 6
928 19 1295 8 203 15 386 20 503 3 64 7 168 10 230 2 61 7 148 9 192 3 44 8
136 11 205 6 130 10 215 20 385 3 55 8 137 10 183 3 45 7 119 10 165 2 45 7
129 11 187 3 58 7 130 9 160 3 61 12 203 20 325 3 44 7 116 10 160 2 44 7 121
10 170 8 144 16 293 20 395 2 52 7 136 9 185 3 50 8 146 11 215 3 69 8 168 10
220 8 168 24 640 25 758 0 34 4 62 10 62 6 0 10 -7 10 -15 0 -22 80 -268 91
-279 5 -6 9 -16 9 -24 0 -7 8 -32 18 -55 11 -23 32 -73 48 -112 15 -38 38 -88
50 -110 11 -22 49 -94 84 -160 57 -109 146 -253 253 -410 53 -78 132 -174 295
-365 113 -131 422 -431 562 -546 19 -16 40 -33 46 -39 6 -5 25 -21 44 -35 18
-14 40 -32 49 -40 58 -52 439 -325 477 -341 5 -2 41 -25 81 -52 39 -26 76 -47
82 -47 6 0 11 -4 11 -8 0 -4 19 -18 43 -30 23 -12 60 -33 82 -46 121 -75 549
-288 670 -333 41 -16 67 -26 145 -61 56 -24 239 -92 345 -127 44 -14 88 -31
97 -36 10 -5 28 -9 41 -9 13 0 27 -3 30 -6 10 -11 110 -43 133 -44 11 0 24 -4
30 -10 5 -5 30 -14 54 -20 110 -24 156 -36 165 -42 6 -3 36 -11 68 -17 31 -6
65 -14 75 -20 9 -5 42 -12 72 -16 30 -4 63 -11 73 -17 9 -5 68 -17 130 -27 61
-11 123 -24 137 -30 31 -13 596 -101 653 -101 23 0 83 -7 132 -16 50 -9 115
-17 145 -19 30 -1 114 -8 185 -14 72 -7 157 -14 190 -16 33 -2 97 -6 141 -9
544 -34 1249 -34 1864 -1 41 3 125 7 185 10 61 3 133 7 160 9 28 3 88 7 135
11 47 3 107 8 134 10 27 3 76 7 110 10 33 3 79 8 101 10 22 3 65 7 95 10 30 3
75 8 100 11 25 3 65 7 90 9 25 3 63 7 85 10 22 2 65 7 95 10 30 3 66 8 80 10
14 2 50 7 80 10 100 12 114 14 185 24 207 30 272 40 430 66 11 2 54 9 95 15
104 17 99 16 155 25 28 5 55 9 60 10 6 0 35 6 65 13 30 7 145 30 255 52 188
37 328 67 490 105 39 9 80 18 91 21 12 2 66 16 120 30 55 14 135 34 179 45 44
11 112 30 150 41 39 12 75 22 80 24 86 19 532 163 725 235 188 69 416 162 528
215 41 19 76 34 79 34 6 0 269 132 318 160 22 12 69 38 105 58 36 19 72 40 80
46 8 6 26 17 40 25 92 54 172 108 310 209 166 122 383 346 459 474 38 63 91
178 91 196 0 10 4 22 9 28 13 13 28 111 25 169 -6 142 -63 255 -188 372 -72
67 -250 183 -282 183 -8 0 -14 5 -14 10 0 6 -7 10 -15 10 -8 0 -25 5 -38 12
-48 24 -57 28 -77 28 -11 0 -20 5 -20 10 0 6 -7 10 -16 10 -15 0 -94 23 -139
41 -11 4 -40 11 -65 15 -25 3 -49 10 -55 14 -12 10 -510 91 -546 89 -13 -1
-80 4 -149 10 -111 10 -756 8 -860 -3 -19 -2 -71 -6 -115 -10 -146 -13 -446
-49 -548 -66 -53 -9 -154 -26 -207 -35 -8 -1 -37 -5 -65 -9 -27 -4 -66 -12
-85 -16 -19 -5 -48 -11 -65 -14 -16 -3 -70 -15 -120 -26 -49 -11 -124 -27
-165 -36 -69 -14 -118 -26 -395 -99 -230 -60 -678 -201 -895 -282 -186 -69
-452 -174 -528 -209 -31 -14 -73 -33 -92 -41 -82 -36 -352 -171 -430 -216
-203 -116 -325 -237 -375 -369 -21 -56 -16 -87 7 -43 35 66 151 172 253 229
28 16 61 35 148 85 96 55 118 67 207 111 123 62 234 113 340 157 47 19 105 44
130 55 72 31 81 34 166 67 44 17 84 31 88 31 4 0 26 8 49 19 53 24 390 141
522 181 163 50 336 101 390 115 28 7 86 23 130 35 44 12 89 23 100 25 11 3 65
16 120 29 89 22 160 38 220 51 11 2 61 13 110 23 50 11 108 23 130 26 22 4 47
9 55 11 8 3 31 7 50 10 19 2 64 9 100 15 287 48 586 83 820 95 47 3 119 7 160
10 169 11 569 4 720 -11 36 -4 74 -6 85 -5 30 3 466 -68 495 -80 14 -6 45 -15
70 -19 51 -10 125 -29 155 -40 69 -26 167 -66 212 -86 28 -13 54 -24 57 -24 3
0 44 -25 92 -56 202 -130 293 -278 274 -441 -9 -72 -16 -105 -30 -138 -5 -11
-14 -35 -22 -52 -7 -18 -16 -33 -20 -33 -5 0 -8 -5 -8 -11 0 -13 -78 -132
-114 -173 -85 -96 -193 -198 -324 -303 -50 -40 -270 -193 -278 -193 -3 0 -20
-10 -37 -22 -69 -51 -341 -195 -577 -306 -96 -46 -345 -152 -355 -152 -4 0
-21 -6 -38 -14 -47 -21 -245 -96 -297 -112 -25 -7 -126 -40 -225 -73 -99 -32
-220 -71 -270 -86 -49 -14 -119 -35 -155 -46 -90 -27 -420 -110 -610 -154 -36
-8 -112 -26 -170 -39 -58 -14 -116 -27 -130 -29 -14 -3 -61 -12 -105 -22 -44
-9 -93 -18 -110 -20 -16 -2 -50 -9 -75 -14 -25 -6 -97 -20 -160 -31 -63 -12
-135 -25 -160 -30 -25 -5 -67 -12 -95 -16 -27 -4 -57 -8 -65 -9 -13 -3 -127
-20 -195 -30 -11 -2 -54 -8 -95 -15 -41 -6 -86 -13 -100 -15 -222 -31 -246
-34 -395 -51 -107 -11 -136 -15 -185 -19 -30 -3 -71 -8 -90 -10 -19 -3 -62 -7
-95 -10 -33 -3 -73 -8 -90 -10 -16 -2 -61 -6 -100 -9 -38 -3 -95 -8 -125 -11
-30 -3 -84 -7 -120 -10 -36 -3 -91 -7 -123 -10 -31 -2 -106 -7 -165 -10 -59
-3 -141 -7 -182 -10 -610 -33 -1340 -33 -1860 1 -47 3 -112 7 -145 9 -33 2
-118 9 -190 15 -71 7 -155 14 -185 15 -30 2 -95 10 -145 19 -49 9 -108 16
-130 16 -56 0 -598 85 -621 98 -10 5 -68 18 -129 27 -60 9 -114 21 -120 25 -5
4 -44 13 -84 19 -41 7 -80 16 -85 20 -6 5 -33 12 -59 15 -26 4 -63 14 -82 22
-19 8 -48 14 -64 14 -16 0 -32 4 -35 9 -4 5 -25 12 -48 16 -23 4 -49 11 -58
15 -8 4 -42 15 -75 25 -91 27 -148 46 -167 56 -10 5 -29 9 -42 9 -14 0 -28 5
-31 10 -3 6 -15 10 -26 10 -10 0 -27 4 -37 9 -9 5 -37 17 -62 26 -70 27 -94
37 -112 46 -10 5 -25 9 -33 9 -8 0 -23 4 -33 9 -9 5 -28 13 -42 19 -14 5 -46
19 -72 31 -26 12 -55 21 -63 21 -8 0 -15 5 -15 10 0 6 -6 10 -13 10 -7 0 -31
8 -53 19 -21 10 -75 35 -119 56 -123 56 -307 147 -335 166 -14 8 -61 35 -105
59 -44 23 -92 51 -107 61 -14 11 -29 19 -32 19 -22 0 -404 255 -561 374 -83
63 -246 194 -255 205 -3 3 -34 31 -70 61 -193 162 -514 493 -615 635 -16 22
-43 56 -61 75 -57 64 -233 324 -276 410 -7 14 -23 40 -35 58 -39 59 -197 388
-209 437 -3 14 -10 28 -15 31 -5 3 -9 15 -9 28 0 12 -4 26 -9 32 -4 5 -15 32
-24 59 -32 100 -65 211 -80 270 -9 33 -20 78 -26 101 -6 22 -13 57 -15 77 -3
21 -9 43 -13 50 -4 6 -8 552 -9 1212 0 1348 -1 1361 -56 1376 -14 4 -31 3 -38
-1z"/>
<path d="M7462 15148 c-7 -40 -14 -127 -18 -193 -8 -150 -10 -195 -28 -475
-12 -176 -20 -342 -30 -595 -3 -71 -8 -186 -11 -255 -9 -224 -15 -401 -20
-605 -3 -110 -7 -301 -10 -425 -7 -327 -14 -712 -20 -1155 -3 -214 -7 -536
-10 -715 -16 -1196 -19 -1582 -19 -2640 -1 -1030 4 -1516 19 -1965 14 -419 25
-675 40 -970 10 -195 29 -487 40 -625 2 -30 7 -98 10 -150 4 -52 8 -115 10
-140 3 -25 7 -90 10 -145 3 -55 8 -111 10 -125 2 -14 7 -72 10 -130 3 -58 8
-127 11 -155 2 -27 7 -84 9 -125 3 -41 8 -102 11 -135 7 -81 12 -142 19 -260
4 -55 9 -103 11 -107 2 -4 0 -9 -5 -12 -7 -5 -16 29 -37 149 -2 11 -8 43 -14
70 -5 28 -23 120 -40 205 -44 224 -96 459 -125 570 -8 30 -30 118 -50 195 -62
237 -172 598 -236 775 -11 30 -22 62 -24 70 -2 8 -15 47 -30 85 -14 39 -30 84
-35 100 -9 32 -72 199 -94 250 -7 17 -19 46 -26 65 -14 41 -20 55 -56 135 -29
66 -47 107 -49 115 -1 3 -8 21 -17 40 -9 19 -36 80 -61 135 -84 187 -240 489
-311 599 -20 31 -36 58 -36 61 0 19 -280 420 -354 506 -17 20 -51 60 -76 90
-83 99 -354 364 -470 460 -242 201 -470 355 -772 523 -85 47 -271 141 -328
165 -30 13 -73 31 -95 41 -83 37 -166 71 -212 86 -27 8 -57 19 -68 23 -11 5
-45 16 -75 25 -30 10 -64 21 -75 26 -34 13 -107 31 -170 42 -33 5 -65 14 -71
19 -14 12 -306 58 -412 65 -228 15 -464 4 -657 -31 -22 -4 -47 -9 -55 -10 -8
-2 -35 -8 -60 -15 -25 -7 -53 -14 -62 -15 -151 -29 -479 -163 -663 -270 -200
-116 -397 -293 -452 -405 -39 -79 -55 -179 -43 -256 28 -168 174 -342 365
-433 94 -45 104 -49 150 -56 22 -4 45 -11 52 -16 11 -10 147 -21 248 -21 84 0
179 11 315 38 86 16 258 70 361 112 130 53 368 174 479 244 25 15 59 34 75 42
17 8 45 26 64 40 19 14 39 26 44 26 4 0 29 16 54 35 25 19 50 35 55 35 5 0 33
18 63 40 30 22 57 40 61 40 13 0 114 73 114 82 0 11 -39 0 -60 -16 -8 -7 -26
-18 -40 -24 -14 -7 -43 -23 -65 -35 -118 -69 -355 -190 -530 -272 -290 -136
-607 -243 -800 -270 -98 -14 -121 -15 -210 -14 -49 0 -105 0 -123 0 -18 -1
-49 6 -69 14 -19 8 -46 15 -58 15 -35 0 -194 69 -223 97 -7 7 -17 13 -21 13
-14 0 -118 106 -148 150 -49 74 -66 127 -66 210 0 59 5 84 23 115 29 53 77
113 119 150 19 16 44 40 55 53 39 44 246 173 394 246 208 104 461 194 587 211
11 2 38 8 60 14 131 35 439 52 675 37 88 -6 331 -45 410 -67 25 -6 70 -18 100
-26 101 -27 165 -45 182 -54 10 -5 26 -9 36 -9 10 0 22 -4 27 -8 6 -5 33 -17
60 -26 28 -10 60 -22 73 -27 12 -5 34 -14 50 -20 15 -7 36 -15 47 -19 11 -4
40 -17 65 -28 25 -11 63 -28 85 -37 117 -51 236 -112 462 -241 72 -41 233
-144 297 -190 34 -24 85 -61 114 -81 29 -21 58 -42 65 -48 7 -5 28 -22 49 -37
20 -15 42 -33 50 -40 12 -12 86 -75 162 -139 60 -50 235 -229 332 -339 85 -98
364 -468 364 -484 0 -3 24 -43 53 -88 104 -162 260 -456 367 -693 60 -132 114
-256 134 -310 32 -85 75 -187 86 -207 6 -10 10 -26 10 -36 0 -10 4 -22 9 -28
23 -25 223 -622 302 -899 72 -254 125 -459 174 -680 9 -38 20 -89 25 -112 15
-66 71 -345 75 -375 2 -15 8 -51 14 -80 22 -106 53 -264 58 -288 2 -13 13 -63
25 -110 11 -47 21 -92 22 -100 0 -8 14 -59 31 -113 32 -105 50 -124 87 -90 19
17 20 25 13 193 -3 96 -8 202 -10 235 -7 111 -20 280 -31 415 -11 140 -14 178
-19 265 -3 50 -8 113 -10 140 -3 28 -7 84 -10 125 -3 41 -7 95 -10 120 -3 25
-7 77 -10 115 -3 39 -7 99 -10 135 -2 36 -7 99 -10 140 -3 41 -7 98 -10 125
-2 28 -7 93 -10 145 -3 52 -7 124 -10 160 -2 36 -7 112 -10 170 -3 58 -8 137
-10 175 -5 71 -10 170 -20 395 -3 69 -8 170 -10 225 -5 93 -10 250 -20 540
-20 610 -25 2485 -11 3820 22 2127 31 2727 51 3455 3 96 7 247 10 335 8 297
18 566 30 815 12 234 16 296 21 312 9 32 8 152 -3 155 -6 2 -15 -28 -21 -69z"/>
<path d="M10925 8136 c-226 -56 -374 -285 -336 -517 16 -96 53 -172 119 -241
95 -100 188 -139 332 -139 140 0 225 37 324 140 68 72 102 141 117 243 51 324
-240 592 -556 514z m180 -57 c124 -23 223 -100 278 -217 30 -62 32 -75 32
-172 0 -93 -3 -112 -27 -163 -38 -80 -115 -158 -191 -193 -55 -26 -73 -29
-162 -29 -88 0 -107 3 -157 27 -154 72 -238 220 -225 395 13 172 133 313 297
349 71 16 85 16 155 3z"/>
<path d="M9785 8128 c-2 -7 -6 -157 -7 -333 -3 -306 -4 -322 -25 -360 -49 -90
-123 -135 -225 -135 -115 1 -202 66 -234 175 -14 50 -18 56 -37 51 -12 -3 -25
-6 -29 -6 -13 0 -9 -33 8 -83 19 -57 92 -140 148 -169 30 -16 65 -23 133 -26
81 -4 97 -2 145 20 77 36 113 71 150 146 l33 67 0 330 0 330 -28 3 c-16 2 -29
-2 -32 -10z"/>
<path d="M12220 7695 l0 -445 30 0 30 0 0 380 c0 209 3 380 8 379 4 0 144
-171 312 -380 289 -360 306 -379 337 -379 l33 0 -2 443 -3 442 -32 3 -33 3 -2
-388 -3 -388 -265 330 c-368 458 -357 445 -385 445 l-25 0 0 -445z"/>
<path d="M14053 8128 c-9 -10 -261 -561 -380 -826 l-23 -53 37 3 c37 3 37 3
89 118 l52 115 254 3 254 2 53 -120 c53 -119 53 -120 87 -120 19 0 34 3 34 8
-1 4 -90 203 -199 442 -178 388 -202 435 -223 438 -14 2 -29 -3 -35 -10z m142
-328 c58 -128 105 -237 105 -242 0 -4 -99 -8 -221 -8 -173 0 -220 3 -216 13
16 37 209 462 213 469 3 5 8 8 10 5 2 -2 51 -109 109 -237z"/>
<path d="M15100 8105 l0 -35 170 0 170 0 0 -410 0 -410 35 0 35 0 0 410 0 410
173 2 172 3 0 30 0 30 -377 3 -378 2 0 -35z"/>
<path d="M16550 7695 l0 -445 30 0 30 0 2 208 3 207 293 3 292 2 0 -210 0
-210 35 0 35 0 -2 443 -3 442 -32 3 -33 3 0 -205 0 -206 -295 0 -295 0 0 205
0 205 -30 0 -30 0 0 -445z"/>
<path d="M18343 8128 c-9 -10 -261 -561 -380 -826 l-23 -53 37 3 c37 3 37 3
89 118 l52 115 254 3 254 2 53 -120 c53 -119 53 -120 87 -120 19 0 34 3 34 8
-1 4 -90 203 -199 442 -178 388 -202 435 -223 438 -14 2 -29 -3 -35 -10z m142
-328 c58 -128 105 -237 105 -242 0 -4 -99 -8 -221 -8 -173 0 -220 3 -216 13
16 37 209 462 213 469 3 5 8 8 10 5 2 -2 51 -109 109 -237z"/>
<path d="M19480 7695 l0 -445 30 0 30 0 0 380 c0 209 3 380 8 379 4 0 144
-171 312 -380 289 -360 306 -379 337 -379 l33 0 -2 443 -3 442 -32 3 -33 3 -2
-388 -3 -388 -265 330 c-368 458 -357 445 -385 445 l-25 0 0 -445z"/>
</g>
</svg>
